<?xml version="1.0" encoding="UTF-8" standalone="no"?>
<svg
   xmlns:dc="http://purl.org/dc/elements/1.1/"
   xmlns:cc="http://creativecommons.org/ns#"
   xmlns:rdf="http://www.w3.org/1999/02/22-rdf-syntax-ns#"
   xmlns:svg="http://www.w3.org/2000/svg"
   xmlns="http://www.w3.org/2000/svg"
   xmlns:sodipodi="http://sodipodi.sourceforge.net/DTD/sodipodi-0.dtd"
   xmlns:inkscape="http://www.inkscape.org/namespaces/inkscape"
   version="1.1"
   width="230"
   height="230"
   viewBox="393 74.84999999999997 230 230"
   xml:space="preserve"
   id="svg31"
   sodipodi:docname="built.svg"><metadata
   id="metadata35"><rdf:RDF><cc:Work
       rdf:about=""><dc:format>image/svg+xml</dc:format><dc:type
         rdf:resource="http://purl.org/dc/dcmitype/StillImage" /></cc:Work></rdf:RDF></metadata><sodipodi:namedview
   pagecolor="#ffffff"
   bordercolor="#666666"
   borderopacity="1"
   objecttolerance="10"
   gridtolerance="10"
   guidetolerance="10"
   inkscape:pageopacity="0"
   inkscape:pageshadow="2"
   inkscape:window-width="640"
   inkscape:window-height="480"
   id="namedview33" />
<desc
   id="desc2">Created with Fabric.js 5.3.0</desc>
<defs
   id="defs4">
</defs><rect
   width="100%"
   height="100%"
   fill="#ffffff"
   id="rect6" />
<g
   transform="matrix(0.46,0,0,0.46,508,190)"
   id="main_icon">
<g
   id="g28">
		<g
   transform="matrix(0.94,0,0,0.94,-0.37,-0.43)"
   id="g10">
<path
   style="opacity:1;fill:#037551;fill-rule:nonzero;stroke:none;stroke-width:1;stroke-linecap:butt;stroke-linejoin:miter;stroke-miterlimit:4;stroke-dasharray:none;stroke-dashoffset:0"
   transform="translate(-265.23,-265.71)"
   d="m 399.28,441.15 c 35.56,-28.43 60.59,-64.24 74.8,-108.24 H 461 q -55.69,0 -111.38,0.12 c -6.69,0 -12.88,1.41 -17.57,6.73 -0.61952,0.51065 -1.3101,0.92836 -2.05,1.24 -0.19,-7.88 3.8,-12.63 9.44,-16.92 5.48,-4.18 12,-8.34 15,-14.12 4.33,-8.5 10.42,-11.12 18.85,-11.56 0.31,9.1 -3.22,14 -11.24,16.78 -2.58,0.9 -4.74,3 -7.09,4.49 0.17,0.36 0.35,0.71 0.52,1.07 h 122.2 c 2.13,-15 4.24,-29.71 6.39,-44.81 h 25.09 V 253.31 H 483.78 C 480.1,197.05 457.67,149.63 418.53,110.43 379.39,71.23 331.16,49.8 275.36,45.31 V 0 H 256 v 45.27 c -55.34,5 -103.55,25.59 -142.6,65.27 C 74.51,150.05 51.2,197.17 48,253.42 H 21.32 c 0,5.09 0,9.88 0,14.66 0.07,8.8 -1.1,7.79 8.11,7.95 6.09,0.11 12.19,0 17.75,0 2.48,15.53 4.84,30.23 7.17,44.81 h 121.27 c -1.5,-2.55 -3.39,-4.88 -5.77,-5.59 -9.07,-2.69 -12,-6.89 -10.95,-17.29 6,1.34 12.73,1.26 15.39,8.19 2.73,7.15 7.79,11.78 14.06,15.59 2.66889,1.68661 5.22132,3.55082 7.64,5.58 3.82,3.09 4.85,7.23 4.26,13 -5.65,-5.94 -12,-7.74 -19.32,-7.69 -37.13,0.27 -74.26,0.23 -111.38,0.3 H 58.06 c 12.8,39.75 40.1,85.09 85.28,115.89 29.89,20.37 62.65,33.63 99.12,38.07 0,-30 0.8,-59.27 -0.27,-88.52 -0.76,-20.72 -16.66,-34.16 -37.53,-34.24 -11.48,0 -23,0.26 -34.46,0.35 -2.36,0 -4.72,-0.21 -7.5,-0.35 5,-7.73 11.27,-11.71 19.89,-11.61 8.62,0.1 17.23,0 25.83,0 -6.84,-20.95 -1.29,-42.68 -4,-64.87 6.46,4 10.06,8.74 10.35,15.34 0.46,10.47 -0.07,21 1,31.42 0.58,5.71 2.28,12.21 5.74,16.53 5.69,7.1 13.22,12.72 20.41,19.36 0.33764,-0.78553 0.5956,-1.60296 0.77,-2.44 0,-16 0.31,-32 -0.2,-47.94 -0.29,-8.86 -4.06,-16.71 -10.42,-23.15 -9.69,-9.82 -21.49,-13.91 -35.15,-13.78 -20.31,0.19 -40.62,0.05 -60.94,0 -6.47,0 -12.41,-4.47 -14.77,-11.12 0.97292,-0.16586 1.95452,-0.27604 2.94,-0.33 25.14,0 50.27,-0.15 75.41,0 30,0.15 49.89,21.67 53.86,40.9 1.58426,7.98544 2.36813,16.10897 2.34,24.25 0.21,61.1 0.13,122.2 0.15,183.3 v 11.43 h 19.66 v -6.86 q -0.08,-49.69 -0.13,-99.4 c 0,-33.29 -0.22,-66.6 0.22,-99.89 0.38,-28.05 23,-51.67 50.92,-53.16 16.6,-0.89 33.28,-0.43 49.92,-0.51 11.15,-0.06 22.29,0 33.84,0 -2.38,7.41 -7.65,11.42 -14.48,11.43 -21.81,0 -43.63,-0.34 -65.42,0.18 -25,0.6 -41.86,18.55 -41.79,43.38 0,13.32 0,26.63 0,39.94 0,1.21 0.16,2.42 0.26,3.89 4.63,-3.8 8.77,-7.37 13.09,-10.7 9.19,-7.11 13.85,-16.28 13.62,-28 q -0.27,-13.49 0.08,-27 c 0.22,-8.85 4.26,-14.48 10.7,-16.56 -0.42,21.31 -0.85,42.93 -1.28,64.74 8.69,0 18.16,-0.28 27.61,0.09 7.06,0.28 11.08,5.39 15.74,11.22 -14,0 -26.82,-0.09 -39.63,0 -24.61,0.21 -40.19,16 -40.13,40.52 0.06,24.52 0.08,49.28 0.11,73.92 v 8.71 C 330,481.11 367.07,466.9 399.28,441.15 Z M 139.67,379.62 c -8.71,0 -15.3,-6.72 -15.23,-15.6 -0.0722,-4.1105 1.49796,-8.08004 4.36242,-11.02898 2.86447,-2.94893 6.78672,-4.63373 10.89758,-4.68102 7.92,-0.09 15.14,7.59 15.12,16.08 0.0111,8.38468 -6.76538,15.19693 -15.15,15.23 z M 444.35,267.67 c 0,8.89 -6.89,15.65 -15.94,15.56 -4.11163,-0.0882 -8.01567,-1.82362 -10.83592,-4.81686 -2.82026,-2.99323 -4.32052,-6.99354 -4.16408,-11.10314 0.19,-8.19 7.29,-15.24 15.38,-15.25 8.21,-0.01 15.53,7.29 15.56,15.61 z m -98.46,-135.3 c 7.47,0.19 14.64,7.87 14.54,15.58 -0.1,8.72 -7.53,15.47 -16.86,15.3 -7.08,-0.13 -14.07,-7.85 -14,-15.46 0.09,-8.34 7.82,-15.65 16.32,-15.42 z m -31.53,-32 c 7.92,-0.09 15.13,7.3 15.13,15.5 0,8 -7.19,15.11 -15.42,15.36 -7.45,0.23 -15.24,-7.78 -15.18,-15.6 0.11,-8.07 7.26,-15.18 15.47,-15.27 z m 13.3,82.06 c 0.0429,2.61532 -1.00359,5.13072 -2.88883,6.94389 -1.88524,1.81318 -4.43951,2.76085 -7.05117,2.61611 -5.29,-0.18 -10,-5 -9.86,-10 0.12398,-5.39803 4.51075,-9.72283 9.91,-9.77 2.68463,-0.024 5.26181,1.05328 7.13069,2.98074 1.86888,1.92746 2.86615,4.53665 2.75931,7.21926 z M 295.77,130.55 306,134 c 3,19.23 -0.83,37 -18,50.46 -10.79,8.46 -15.86,20.22 -16.48,33.91 -0.14192,2.95547 -0.49954,5.89663 -1.07,8.8 0,-12.47 -0.1,-24.94 0.11,-37.41 0.1986,-2.12599 1.01166,-4.14823 2.34,-5.82 1.58673,-2.33446 3.57806,-4.36643 5.88,-6 17.74,-11.7 20.79,-28.51 16.99,-47.4 z m 11.9,78.2 c -0.5,8.3 0,8.33 -8.83,10.22 v -28.89 c 8.16,3.92 9.32,10.63 8.83,18.66 z M 265.61,71.51 c 8.05,0 15.13,7.26 15.14,15.43 0.13303,4.207092 -1.47078,8.28359 -4.43481,11.272209 -2.96403,2.988621 -7.02714,4.626061 -11.23519,4.527791 -8.06,0.06 -15,-7.41 -15,-16.07 0.08,-7.89 7.56,-15.21 15.53,-15.16 z m -31.37,78.15 c 0.63,10.68 6,19 14.58,25 9.22,6.39 14.43,14.34 13,26 -0.56,4.75 -0.09,9.63 -0.09,14.79 -0.68,-0.45 -1.05,-0.56 -1.08,-0.73 -2.58,-14.67 -10.4,-25.69 -22.05,-34.93 -9.52,-7.54 -14,-18.35 -14,-30.75 0,-4.81 0,-9.62 0,-14.25 l 9.54,-4.63 c 0.03,6.34 -0.29,12.94 0.1,19.5 z m -1.65,39.83 v 29.78 l -9,-2.49 c 0,-6.24 0,-12.67 0.06,-19.1 0.18234,-0.91706 0.69469,-1.7354 1.44,-2.3 2.4,-1.98 4.91,-3.82 7.5,-5.89 z m -15,-89.09 c 7.77,0.1 14.48,7.27 14.45,15.44 -0.03,8.17 -6.78,15.11 -14.64,15.25 -8.46,0.16 -15.84,-7.06 -15.66,-15.32 0.39535,-8.50903 7.34276,-15.24179 15.86,-15.37 z m 5.91,81.6 c 0,5.73 -3.91,9.46 -9.86,9.44 -5.95,-0.02 -9.69,-3.73 -9.81,-9.53 -0.11,-5.08 4.65,-9.76 9.93,-9.77 2.59997,0.0132 5.08789,1.06011 6.91508,2.90981 1.82719,1.8497 2.84354,4.35026 2.82492,6.95019 z M 187,132.38 c 7.75,0.05 14.79,7.65 14.69,15.86 -0.1,8.21 -7.1,14.77 -16.16,14.83 -7.6,0 -14,-6.89 -14,-15.11 0,-8.22 7.24,-15.63 15.47,-15.58 z m -85,150.83 c -4.120279,-7.4e-4 -8.06445,-1.67087 -10.932353,-4.62922 C 88.199743,275.62243 86.652848,271.62832 86.78,267.51 c 0.18,-8.94 6.87,-15.64 15.46,-15.49 8.53564,0.33608 15.30187,7.31802 15.37,15.86 0.0538,4.13102 -1.5828,8.10461 -4.53043,10.99937 -2.94764,2.89477 -6.95021,4.45923 -11.07957,4.33063 z m 77.87,-21.63 c -5.09,-10.41 -14.35,-16.4 -25.9,-16.93 -18.35,-0.85 -28.81,-10.94 -34.88,-27.77 -5.3,2.3 -10.8,5.33 -16.34,1.46 -2.73938,-1.8143 -5.033204,-4.22436 -6.71,-7.05 -3.36,-6.21 -1.26,-14.5 4.13,-19 5.11736,-4.38898 12.59277,-4.64646 18,-0.62 7.37,5.49 8.07,11.8 2.51,25.55 6.82,-1 10,4.07 13.89,7.88 5.47938,5.43056 12.73271,8.70396 20.43,9.22 17.28,1.47 31.48,12.86 36,28.6 0.31,1.09 0.44,2.24 0.72,3.68 -5.5,1.12 -9.04,0.68 -11.82,-5.02 z M 158,214.64 c 10.92,2.5 14.92,7.35 14.4,17.1 -10.84,-1.51 -13.82,-4.97 -14.4,-17.1 z m 102.72,74 c -2.06,-7 -3.56,-14.19 -6.32,-20.88 -2.82277,-7.24691 -6.46296,-14.14819 -10.85,-20.57 -6.39,-8.93 -16,-13.31 -26.83,-14.63 -11.11398,-1.20145 -21.10364,-7.32296 -27.22,-16.68 -6.68,-9.83 -16.66,-15.63 -25.22,-23.14 -0.91,-0.8 -3.86,-0.1 -5.38,0.77 -5.6,3.18 -11.07,3.37 -16.45,-0.14 -5.15,-3.35 -7.67,-8.19 -7,-14.41 0.83,-8.3 8.51,-14.91 16.38,-14.2 8.67701,0.91086 15.06926,8.53732 14.45,17.24 -0.29,3.1 0.53,4.41 3.08,5.74 3.5,1.82 6.74,4.13 10.81,6.68 V 168 l 9.58,0.47 c 0,7 -0.17,13.93 0,20.84 0.37,12.31 6.26,21.76 16.6,27.87 4.72,2.78 10.54,3.92 16,5.15 19.13,4.32 32.85,15.09 37.46,34.37 2.43,10.15 1.6,21.09 2.24,31.68 z M 269,161.87 h -6.07 V 106.78 H 269 Z m 42.47,71.93 c -14.48,1.93 -23.91,11 -29.92,23.69 -3.74,7.91 -6.6,16.24 -9.63,23.84 -6.07,-24.64 5.13,-46.74 27.77,-56 4.57,-1.87 9.55,-2.8 14.4,-3.91 17.68,-4 26.76,-14.95 27.19,-33 0.15,-6.47 0,-13 0,-19.77 h 9.05 v 26.26 l 15.68,-9.7 c -1.32,-6.83 -0.07,-13 6,-17.53 5.64131,-4.30694 13.56105,-3.94006 18.78,0.87 6,5.57 7.08,13.52 2.74,20.38 -3.88,6.12 -11.24,8.9 -17.74,5.58 -4.71,-2.41 -7.64,-1.88 -11.09,1.89 -2.18,2.38 -5.56,3.61 -8.12,5.7 -3.45,2.81 -7.29,5.48 -9.79,9 -8.79,12.41 -19.79,20.64 -35.31,22.7 z m 47.43,-1.75 c -0.68,-8.76 3.86,-14.5 13.55,-17.15 1.41,11.82 -1.55,14.15 -13.54,17.15 z m 12.95,14.62 c -9.3,0.66 -15.66,6.7 -20.13,14.65 -3.69,6.58 -3.76,6.64 -11.91,5 1.63,-15 15.14,-28.65 32.07,-30.87 12.74,-1.68 24,-5 31.62,-16.29 0.46,-0.68 2,-0.82 3,-0.92 4.21,-0.4 4.74,-1.41 2.6,-5.24 -4.92,-8.79 -3,-17.4 4.88,-22.07 5.90963,-3.57622 13.51441,-2.53864 18.25,2.49 5.53,5.72 6.34,13.82 2,20.15 -4.01443,5.53031 -11.19973,7.74336 -17.63,5.43 -1.22,-0.46 -2.39,-1 -4.43,-1.94 -6.17,20.4 -20.72,28.22 -40.31,29.61 z m 20.77,101.68 c 8.14,0.06 15.1,7.41 15.14,16 -0.14251,8.55135 -7.16805,15.38025 -15.72,15.28 -8.12,0 -14.58,-6.95 -14.67,-15.69 -0.11395,-4.11127 1.4463,-8.0926 4.32324,-11.03176 2.87695,-2.93916 6.824,-4.58422 10.93676,-4.55824 z"
   stroke-linecap="round"
   id="path8" />
</g>
		<g
   transform="matrix(0.94,0,0,0.94,149.02,141.5)"
   id="g14">
<path
   style="opacity:1;fill:#037551;fill-rule:nonzero;stroke:none;stroke-width:1;stroke-linecap:butt;stroke-linejoin:miter;stroke-miterlimit:4;stroke-dasharray:none;stroke-dashoffset:0"
   transform="translate(-424.17,-416.7)"
   d="M 507,301.62 V 508.24 H 317.07 v 23.54 H 531.28 V 301.62 Z"
   stroke-linecap="round"
   id="path12" />
</g>
		<g
   transform="matrix(0.94,0,0,0.94,-148.99,141.39)"
   id="g18">
<path
   style="opacity:1;fill:#037551;fill-rule:nonzero;stroke:none;stroke-width:1;stroke-linecap:butt;stroke-linejoin:miter;stroke-miterlimit:4;stroke-dasharray:none;stroke-dashoffset:0"
   transform="translate(-107.14,-416.59)"
   d="M 24.09,301.59 H 0 v 230 H 214.29 V 508.41 H 24.09 Z"
   stroke-linecap="round"
   id="path16" />
</g>
		<g
   transform="matrix(0.94,0,0,0.94,148.91,-143.36)"
   id="g22">
<path
   style="opacity:1;fill:#037551;fill-rule:nonzero;stroke:none;stroke-width:1;stroke-linecap:butt;stroke-linejoin:miter;stroke-miterlimit:4;stroke-dasharray:none;stroke-dashoffset:0"
   transform="translate(-424.05,-113.66)"
   d="m 507.44,227.2 h 23.75 V 0.12 H 316.91 v 23.67 h 190.53 z"
   stroke-linecap="round"
   id="path20" />
</g>
		<g
   transform="matrix(0.94,0,0,0.94,-148.93,-143.35)"
   id="g26">
<path
   style="opacity:1;fill:#037551;fill-rule:nonzero;stroke:none;stroke-width:1;stroke-linecap:butt;stroke-linejoin:miter;stroke-miterlimit:4;stroke-dasharray:none;stroke-dashoffset:0"
   transform="translate(-107.2,-113.67)"
   d="m 24.4,23.33 h 190 V 0.09 H 0 v 227.17 h 24.4 z"
   stroke-linecap="round"
   id="path24" />
</g>
</g>
</g></svg>
